<svg width="300" height="300" viewBox="0 0 300 300" fill="none" xmlns="http://www.w3.org/2000/svg">
<circle cx="150" cy="150" r="150" fill="white"/>
<path d="M222.778 88.2328C209.39 82.5791 195.04 78.4003 180.034 76.0242C179.901 76.0001 179.762 76.0156 179.638 76.0685C179.515 76.1213 179.411 76.2089 179.343 76.3191C177.505 79.3426 175.458 83.2838 174.023 86.3974C158.108 84.1707 141.927 84.1707 126.012 86.3974C124.413 82.9467 122.611 79.5821 120.613 76.3191C120.545 76.2076 120.443 76.118 120.319 76.0624C120.196 76.0067 120.057 75.9877 119.922 76.0078C104.924 78.384 90.5742 82.5628 77.178 88.2246C77.0627 88.2699 76.965 88.3471 76.898 88.4458C49.668 125.932 42.2042 162.492 45.8705 198.594C45.8807 198.682 45.91 198.768 45.9566 198.845C46.0032 198.923 46.0662 198.991 46.1417 199.045C62.0351 209.88 79.7622 218.134 98.5805 223.462C98.7116 223.5 98.8519 223.5 98.9831 223.462C99.1142 223.424 99.23 223.349 99.3155 223.249C103.365 218.177 106.953 212.797 110.043 207.165C110.086 207.088 110.111 207.003 110.115 206.916C110.12 206.829 110.105 206.743 110.071 206.662C110.037 206.581 109.985 206.508 109.918 206.448C109.851 206.387 109.772 206.341 109.684 206.312C104.032 204.319 98.5549 201.914 93.3042 199.118C93.2099 199.068 93.1304 198.996 93.0728 198.91C93.0153 198.824 92.9816 198.725 92.9746 198.624C92.9677 198.522 92.9878 198.421 93.0331 198.328C93.0784 198.236 93.1475 198.155 93.2342 198.094C94.3367 197.332 95.4392 196.537 96.4892 195.743C96.5837 195.671 96.6976 195.626 96.8181 195.611C96.9386 195.597 97.061 195.614 97.1717 195.661C131.533 210.114 168.747 210.114 202.705 195.661C202.816 195.611 202.94 195.592 203.062 195.605C203.185 195.618 203.3 195.663 203.397 195.734C204.447 196.537 205.54 197.332 206.652 198.094C206.739 198.154 206.81 198.233 206.856 198.325C206.903 198.417 206.925 198.518 206.92 198.619C206.914 198.721 206.882 198.82 206.826 198.907C206.771 198.994 206.692 199.066 206.599 199.118C201.367 201.937 195.924 204.321 190.21 206.304C190.123 206.334 190.043 206.381 189.976 206.442C189.909 206.503 189.857 206.577 189.823 206.658C189.789 206.74 189.774 206.827 189.779 206.914C189.784 207.002 189.809 207.087 189.852 207.165C193.002 212.794 196.607 218.152 200.57 223.241C200.653 223.345 200.768 223.423 200.899 223.464C201.031 223.505 201.173 223.507 201.305 223.47C220.156 218.158 237.912 209.899 253.823 199.045C253.901 198.994 253.966 198.928 254.014 198.852C254.062 198.775 254.093 198.69 254.103 198.602C258.478 156.863 246.77 120.598 223.049 88.4622C222.991 88.3578 222.895 88.2764 222.778 88.2328ZM115.179 176.61C104.837 176.61 96.3055 167.851 96.3055 157.109C96.3055 146.359 104.67 137.608 115.179 137.608C125.767 137.608 134.219 146.433 134.053 157.109C134.053 167.859 125.688 176.61 115.179 176.61V176.61ZM184.96 176.61C174.609 176.61 166.087 167.851 166.087 157.109C166.087 146.359 174.443 137.608 184.96 137.608C195.548 137.608 204 146.433 203.834 157.109C203.834 167.859 195.557 176.61 184.96 176.61V176.61Z" fill="#81A49E"/>
</svg>
