<svg width="75" height="75" viewBox="0 0 75 75" fill="none" xmlns="http://www.w3.org/2000/svg">
<g clip-path="url(#clip0_23_39)">
<path d="M63.4907 14.0375C58.7094 11.8813 53.5844 10.2875 48.225 9.38129C48.1773 9.37213 48.1279 9.37803 48.0837 9.39819C48.0394 9.41834 48.0026 9.45175 47.9782 9.49379C47.3219 10.6469 46.5907 12.15 46.0782 13.3375C40.3941 12.4883 34.6154 12.4883 28.9313 13.3375C28.3605 12.0215 27.7167 10.7382 27.0032 9.49379C26.979 9.45124 26.9424 9.41707 26.8983 9.39585C26.8542 9.37463 26.8046 9.36737 26.7563 9.37504C21.4 10.2813 16.275 11.875 11.4907 14.0344C11.4495 14.0517 11.4146 14.0811 11.3907 14.1188C1.66566 28.4157 -0.999963 42.3594 0.309412 56.1282C0.313056 56.1619 0.323523 56.1945 0.340178 56.2241C0.356832 56.2536 0.379325 56.2795 0.406287 56.3C6.08251 60.4326 12.4136 63.5807 19.1344 65.6125C19.1813 65.627 19.2314 65.6269 19.2782 65.6124C19.325 65.5979 19.3664 65.5697 19.3969 65.5313C20.8431 63.5971 22.1247 61.5452 23.2282 59.3969C23.2435 59.3675 23.2523 59.3352 23.254 59.3021C23.2558 59.2691 23.2504 59.236 23.2382 59.2052C23.2261 59.1744 23.2075 59.1465 23.1836 59.1235C23.1598 59.1005 23.1313 59.0829 23.1 59.0719C21.0813 58.3117 19.1253 57.3943 17.25 56.3282C17.2163 56.3089 17.1879 56.2816 17.1674 56.2487C17.1469 56.2158 17.1348 56.1783 17.1323 56.1396C17.1299 56.1009 17.137 56.0621 17.1532 56.0269C17.1694 55.9916 17.1941 55.9609 17.225 55.9375C17.6188 55.6469 18.0125 55.3438 18.3875 55.0407C18.4213 55.0134 18.462 54.9961 18.505 54.9905C18.548 54.985 18.5917 54.9916 18.6313 55.0094C30.9032 60.5219 44.1938 60.5219 56.3219 55.0094C56.3616 54.9905 56.4057 54.9831 56.4494 54.9881C56.493 54.993 56.5344 55.0102 56.5688 55.0375C56.9438 55.3438 57.3344 55.6469 57.7313 55.9375C57.7626 55.9604 57.7877 55.9907 57.8043 56.0257C57.821 56.0606 57.8288 56.0992 57.827 56.1379C57.8251 56.1766 57.8137 56.2142 57.7937 56.2474C57.7737 56.2806 57.7458 56.3084 57.7125 56.3282C55.8438 57.4032 53.9 58.3125 51.8594 59.0688C51.8281 59.0802 51.7995 59.0981 51.7757 59.1214C51.7518 59.1447 51.7332 59.1728 51.7211 59.2038C51.7089 59.2349 51.7036 59.2682 51.7053 59.3015C51.7071 59.3348 51.716 59.3673 51.7313 59.3969C52.8563 61.5438 54.1438 63.5875 55.5594 65.5282C55.5888 65.568 55.6298 65.5978 55.6768 65.6134C55.7238 65.6291 55.7745 65.6299 55.8219 65.6157C62.5543 63.5895 68.8957 60.44 74.5782 56.3C74.6059 56.2807 74.6292 56.2556 74.6464 56.2265C74.6636 56.1974 74.6745 56.1649 74.6782 56.1313C76.2407 40.2125 72.0594 26.3813 63.5875 14.125C63.5668 14.0852 63.5324 14.0542 63.4907 14.0375ZM25.0625 47.7438C21.3688 47.7438 18.3219 44.4032 18.3219 40.3063C18.3219 36.2063 21.3094 32.8688 25.0625 32.8688C28.8438 32.8688 31.8625 36.2344 31.8032 40.3063C31.8032 44.4063 28.8157 47.7438 25.0625 47.7438ZM49.9844 47.7438C46.2875 47.7438 43.2438 44.4032 43.2438 40.3063C43.2438 36.2063 46.2282 32.8688 49.9844 32.8688C53.7657 32.8688 56.7844 36.2344 56.725 40.3063C56.725 44.4063 53.7688 47.7438 49.9844 47.7438Z" fill="white"/>
</g>
<defs>
<clipPath id="clip0_23_39">
<rect width="75" height="75" fill="white"/>
</clipPath>
</defs>
</svg>
