<svg width="75" height="75" viewBox="0 0 75 75" fill="none" xmlns="http://www.w3.org/2000/svg">
<path d="M37.5 0C16.7938 0 0 16.7906 0 37.5C0 54.0687 10.7437 68.125 25.6469 73.0844C27.5187 73.4312 28.125 72.2687 28.125 71.2812V64.3C17.6938 66.5687 15.5219 59.875 15.5219 59.875C13.8156 55.5406 11.3562 54.3875 11.3562 54.3875C7.95312 52.0594 11.6156 52.1094 11.6156 52.1094C15.3813 52.3719 17.3625 55.975 17.3625 55.975C20.7063 61.7063 26.1344 60.05 28.275 59.0906C28.6094 56.6688 29.5813 55.0125 30.6563 54.0781C22.3281 53.125 13.5719 49.9094 13.5719 35.5437C13.5719 31.4469 15.0375 28.1031 17.4344 25.4781C17.0469 24.5312 15.7625 20.7156 17.8 15.5531C17.8 15.5531 20.95 14.5469 28.1156 19.3969C31.1062 18.5656 34.3125 18.15 37.5 18.1344C40.6875 18.15 43.8969 18.5656 46.8937 19.3969C54.0531 14.5469 57.1969 15.5531 57.1969 15.5531C59.2375 20.7188 57.9531 24.5344 57.5656 25.4781C59.9719 28.1031 61.425 31.45 61.425 35.5437C61.425 49.9469 52.6531 53.1188 44.3031 54.0469C45.6469 55.2094 46.875 57.4906 46.875 60.9906V71.2812C46.875 72.2781 47.475 73.45 49.3781 73.0812C64.2687 68.1156 75 54.0625 75 37.5C75 16.7906 58.2094 0 37.5 0Z" fill="white"/>
</svg>
