<svg width="73" height="162" viewBox="0 0 73 162" fill="none" xmlns="http://www.w3.org/2000/svg">
<rect x="8.1001" y="8.09998" width="8.1" height="8.1" fill="black"/>
<rect x="16.2" y="8.09998" width="8.1" height="8.1" fill="black"/>
<rect x="24.3" y="8.09998" width="8.1" height="8.1" fill="black"/>
<rect x="32.3999" y="8.09998" width="8.1" height="8.1" fill="black"/>
<rect x="32.3999" y="16.2" width="8.1" height="8.1" fill="black"/>
<rect x="24.3" y="16.2" width="8.1" height="8.1" fill="black"/>
<rect x="16.2" y="16.2" width="8.1" height="8.1" fill="black"/>
<rect x="8.1001" y="16.2" width="8.1" height="8.1" fill="black"/>
<rect y="16.2" width="8.1" height="8.1" fill="black"/>
<rect y="24.3" width="8.1" height="8.1" fill="black"/>
<rect y="32.4" width="8.1" height="8.1" fill="black"/>
<rect x="8.1001" y="40.5" width="8.1" height="8.1" fill="black"/>
<rect x="8.1001" y="56.7" width="8.1" height="8.1" fill="black"/>
<rect y="56.7" width="8.1" height="8.1" fill="black"/>
<rect x="8.1001" y="81" width="8.1" height="8.1" fill="black"/>
<rect x="8.1001" y="48.6" width="8.1" height="8.1" fill="black"/>
<rect y="48.6" width="8.1" height="8.1" fill="black"/>
<rect x="8.1001" y="72.9" width="8.1" height="8.1" fill="black"/>
<rect x="8.1001" y="64.8" width="8.1" height="8.1" fill="black"/>
<rect x="8.1001" y="89.1" width="8.1" height="8.1" fill="black"/>
<rect x="16.2" y="32.4" width="8.1" height="8.1" fill="black"/>
<rect x="24.3" y="40.5" width="8.1" height="8.1" fill="black"/>
<rect x="24.3" y="56.7" width="8.1" height="8.1" fill="black"/>
<rect x="24.3" y="81" width="8.1" height="8.1" fill="black"/>
<rect x="24.3" y="113.4" width="8.1" height="8.1" fill="black"/>
<rect x="24.3" y="48.6" width="8.1" height="8.1" fill="black"/>
<rect x="24.3" y="72.9" width="8.1" height="8.1" fill="black"/>
<rect x="24.3" y="105.3" width="8.1" height="8.1" fill="black"/>
<rect x="24.3" y="64.8" width="8.1" height="8.1" fill="black"/>
<rect x="24.3" y="89.1" width="8.1" height="8.1" fill="black"/>
<rect x="24.3" y="121.5" width="8.1" height="8.1" fill="black"/>
<rect x="24.3" y="97.2" width="8.1" height="8.1" fill="black"/>
<rect x="8.1001" y="32.4" width="8.1" height="8.1" fill="black"/>
<rect x="16.2" y="40.5" width="8.1" height="8.1" fill="black"/>
<rect x="16.2" y="56.7" width="8.1" height="8.1" fill="black"/>
<rect x="16.2" y="81" width="8.1" height="8.1" fill="black"/>
<rect x="16.2" y="48.6" width="8.1" height="8.1" fill="black"/>
<rect x="16.2" y="72.9" width="8.1" height="8.1" fill="black"/>
<rect x="16.2" y="64.8" width="8.1" height="8.1" fill="black"/>
<rect x="16.2" y="89.1" width="8.1" height="8.1" fill="black"/>
<rect x="16.2" y="97.2" width="8.1" height="8.1" fill="black"/>
<rect x="24.3" y="32.4" width="8.1" height="8.1" fill="black"/>
<rect x="32.3999" y="40.5" width="8.1" height="8.1" fill="black"/>
<rect x="32.3999" y="56.7" width="8.1" height="8.1" fill="black"/>
<rect x="32.3999" y="81" width="8.1" height="8.1" fill="black"/>
<rect x="32.3999" y="113.4" width="8.1" height="8.1" fill="black"/>
<rect x="32.3999" y="48.6" width="8.1" height="8.1" fill="black"/>
<rect x="32.3999" y="72.9" width="8.1" height="8.1" fill="black"/>
<rect x="32.3999" y="105.3" width="8.1" height="8.1" fill="black"/>
<rect x="32.3999" y="64.8" width="8.1" height="8.1" fill="black"/>
<rect x="32.3999" y="89.1" width="8.1" height="8.1" fill="black"/>
<rect x="32.3999" y="121.5" width="8.1" height="8.1" fill="black"/>
<rect x="32.3999" y="97.2" width="8.1" height="8.1" fill="black"/>
<rect x="32.3999" y="129.6" width="8.1" height="8.1" fill="black"/>
<rect x="32.3999" y="32.4" width="8.1" height="8.1" fill="black"/>
<rect x="40.5" y="40.5" width="8.1" height="8.1" fill="black"/>
<rect x="40.5" y="56.7" width="8.1" height="8.1" fill="black"/>
<rect x="32.3999" y="137.7" width="8.1" height="8.1" fill="black"/>
<rect x="40.5" y="81" width="8.1" height="8.1" fill="black"/>
<rect x="40.5" y="48.6" width="8.1" height="8.1" fill="black"/>
<rect x="40.5" y="72.9" width="8.1" height="8.1" fill="black"/>
<rect x="32.3999" y="153.9" width="8.1" height="8.1" fill="black"/>
<rect x="40.5" y="64.8" width="8.1" height="8.1" fill="black"/>
<rect x="32.3999" y="145.8" width="8.1" height="8.1" fill="black"/>
<rect x="40.5" y="89.1" width="8.1" height="8.1" fill="black"/>
<rect x="48.6001" y="40.5" width="8.1" height="8.1" fill="black"/>
<rect x="64.8" y="48.6" width="8.1" height="8.1" fill="black"/>
<rect x="48.6001" y="56.7" width="8.1" height="8.1" fill="black"/>
<rect x="56.7" y="64.8" width="8.1" height="8.1" fill="black"/>
<rect x="64.8" y="72.9" width="8.1" height="8.1" fill="black"/>
<rect x="48.6001" y="81" width="8.1" height="8.1" fill="black"/>
<rect x="48.6001" y="48.6" width="8.1" height="8.1" fill="black"/>
<rect x="64.8" y="56.7" width="8.1" height="8.1" fill="black"/>
<rect x="48.6001" y="72.9" width="8.1" height="8.1" fill="black"/>
<rect x="48.6001" y="64.8" width="8.1" height="8.1" fill="black"/>
<rect x="40.5" y="97.2" width="8.1" height="8.1" fill="black"/>
<rect x="8.1001" y="24.3" width="8.1" height="8.1" fill="black"/>
<rect x="16.2" y="24.3" width="8.1" height="8.1" fill="black"/>
<rect x="24.3" y="24.3" width="8.1" height="8.1" fill="black"/>
<rect x="40.5" width="8.1" height="8.1" fill="black"/>
</svg>
