<?xml version="1.0" standalone="no"?>
<!DOCTYPE svg PUBLIC "-//W3C//DTD SVG 20010904//EN"
 "http://www.w3.org/TR/2001/REC-SVG-20010904/DTD/svg10.dtd">
<svg version="1.0" xmlns="http://www.w3.org/2000/svg"
 width="1080.000000pt" height="1080.000000pt" viewBox="0 0 1080.000000 1080.000000"
 preserveAspectRatio="xMidYMid meet">
<metadata>
Created by potrace 1.14, written by Peter Selinger 2001-2017
</metadata>
<g transform="translate(0.000000,1080.000000) scale(0.100000,-0.100000)"
fill="#000000" stroke="none">
<path d="M5770 9980 c-28 -9 -210 -59 -237 -65 -10 -2 -61 -16 -113 -30 -528
-144 -499 -139 -595 -105 -74 26 -234 67 -295 75 -25 3 -52 8 -60 10 -64 18
-326 26 -420 14 -36 -5 -92 -16 -125 -25 -33 -9 -64 -17 -70 -18 -68 -15 -228
-122 -313 -209 -78 -80 -100 -107 -154 -192 -94 -145 -138 -251 -185 -440 -3
-11 -6 -78 -8 -150 -7 -251 54 -448 242 -779 40 -71 73 -131 73 -133 0 -3 8
-17 19 -31 34 -50 90 -164 118 -241 26 -72 27 -86 29 -266 1 -172 7 -276 19
-345 2 -14 7 -43 10 -65 3 -23 7 -52 10 -65 3 -14 8 -41 11 -60 64 -351 152
-569 462 -1140 52 -95 435 -860 519 -1035 184 -383 233 -487 233 -490 0 -1 23
-52 51 -111 45 -97 69 -148 74 -164 1 -3 20 -45 43 -93 130 -276 439 -996 530
-1237 22 -58 68 -177 102 -265 124 -323 330 -945 355 -1075 2 -8 8 -35 15 -60
7 -25 14 -52 15 -60 36 -157 47 -213 64 -310 22 -126 34 -222 32 -258 0 -13 3
-21 8 -17 10 6 7 480 -4 600 -10 116 -25 237 -35 290 -5 28 -11 61 -14 75 -2
14 -12 58 -21 98 -9 40 -15 75 -12 78 12 13 207 -411 277 -603 25 -70 43 -83
35 -25 -7 61 -18 136 -21 152 -2 8 -5 35 -8 60 -8 67 -60 309 -94 440 -31 118
-116 389 -132 425 -18 39 -37 104 -32 109 5 6 141 -231 222 -387 72 -138 79
-113 25 90 -75 285 -167 754 -190 968 -4 33 -8 70 -10 82 -7 45 -18 251 -18
333 0 68 11 227 18 250 1 3 5 28 10 55 5 28 10 52 10 55 1 3 5 25 10 50 5 25
9 47 10 50 1 3 5 25 9 50 5 25 10 54 12 65 20 100 80 417 99 525 19 109 67
370 90 500 6 28 32 180 40 225 3 17 14 75 25 130 11 55 22 116 25 135 3 19 10
53 15 75 10 48 29 142 36 181 19 107 90 429 115 527 54 209 172 477 210 477 5
0 37 -30 72 -67 144 -156 238 -234 327 -269 55 -22 160 -14 226 18 57 27 66
45 27 54 -47 12 -143 61 -198 103 -171 129 -248 354 -208 606 7 44 15 98 19
120 3 22 8 43 10 47 3 4 7 16 9 26 17 92 73 234 126 325 51 85 117 153 181
182 29 13 45 26 38 30 -20 12 -191 5 -251 -10 -32 -9 -80 -27 -106 -41 -97
-51 -139 -109 -188 -259 -50 -150 -59 -154 -52 -25 7 121 12 152 37 233 l18
59 -26 -7 c-33 -8 -88 -67 -107 -113 -33 -78 -47 -182 -60 -467 -8 -190 -61
-405 -126 -521 -28 -50 -109 -134 -128 -134 -5 0 -16 -2 -24 -6 -24 -9 -44 59
-52 183 -5 77 -9 123 -20 238 -6 54 -33 245 -39 270 -1 6 -8 37 -15 70 -46
219 -139 460 -249 650 -64 110 -83 138 -160 230 -181 219 -451 402 -758 515
-102 38 -128 53 -166 93 -60 65 -69 180 -24 301 45 118 103 187 487 581 92 93
177 182 190 196 61 68 79 89 79 94 0 7 -20 5 -50 -5z"/>
</g>
</svg>
